<?xml version="1.0" encoding="utf-8"?><svg viewBox="0 0 14 14" xmlns="http://www.w3.org/2000/svg" xmlns:xlink="http://www.w3.org/1999/xlink"><style>:root>svg{display:none}:root>svg:target{display:block}</style><svg fill="none" viewBox="0 0 14 14" id="behance" xmlns="http://www.w3.org/2000/svg"><path d="M5.613 6.574S6.93 6.47 6.93 4.864C6.93 3.256 5.853 2.47 4.49 2.47H0v8.986h4.49s2.739.09 2.739-2.653c0 0 .12-2.23-1.616-2.23zM1.978 4.068h2.51s.61 0 .61.936c0 .935-.359 1.07-.765 1.07H1.978V4.068zM4.361 9.86H1.978V7.458h2.51s.91-.012.91 1.234c0 1.051-.68 1.16-1.037 1.168zm6.522-5.102c-3.316 0-3.313 3.451-3.313 3.451s-.228 3.437 3.313 3.437c0 0 2.952.176 2.952-2.39h-1.518s.05.967-1.383.967c0 0-1.52.106-1.52-1.565h4.472s.488-3.9-3.003-3.9zm1.35 2.7H9.4s.185-1.384 1.518-1.384c1.33 0 1.315 1.384 1.315 1.384zM12.585 3H9.028v1.108h3.557V3z" fill="#000"/></svg><svg fill="none" viewBox="0 0 14 14" id="dribbble" xmlns="http://www.w3.org/2000/svg"><path d="M6.526 4.929a35.031 35.031 0 00-2.173-3.37 5.861 5.861 0 00-3.227 4.084c.153.003 2.59.032 5.4-.714zm.728 1.965c.076-.025.154-.048.23-.07a19.541 19.541 0 00-.475-.994c-3.01.902-5.902.836-6.004.833-.002.062-.004.124-.004.186a5.83 5.83 0 001.497 3.905s1.6-2.84 4.756-3.86zm-4 4.566v-.003c-.042-.034-.088-.064-.131-.1l.13.103zM5.448 1.17a.106.106 0 01-.016.004l.016-.004zm5.264 1.29a5.822 5.822 0 00-5.24-1.296 29.975 29.975 0 012.186 3.412c2.205-.826 3.038-2.092 3.054-2.117zM6.848 13.697a6.85 6.85 0 11.003-13.7 6.85 6.85 0 01-.003 13.7zm.995-5.892c-3.432 1.196-4.565 3.603-4.588 3.652a5.836 5.836 0 005.877.778 24.29 24.29 0 00-1.25-4.441l-.039.011zm.264-2.358a16.772 16.772 0 01.515 1.15c2.02-.254 4.01.177 4.074.192a5.825 5.825 0 00-1.33-3.656c-.012.018-.95 1.372-3.26 2.314zm.871 2.075a25.233 25.233 0 011.14 4.177 5.853 5.853 0 002.507-3.923c-.117-.037-1.755-.557-3.647-.254z" fill="#000"/></svg><svg fill="none" viewBox="0 0 14 14" id="fb" xmlns="http://www.w3.org/2000/svg"><path d="M12.25 0H1.75C.787 0 0 .788 0 1.75v10.5C0 13.213.787 14 1.75 14h5.31V8.98H5.384V6.793h1.678V5.698c0-1.69 1.246-3.012 2.837-3.012h1.546v2.47H10.06c-.36 0-.469.207-.469.494v1.143h1.852V8.98H9.592V14h2.658c.963 0 1.75-.787 1.75-1.75V1.75C14 .788 13.213 0 12.25 0z" fill="#000"/></svg><svg fill="none" viewBox="0 0 14 14" id="ig" xmlns="http://www.w3.org/2000/svg"><path d="M11.231 7a4.232 4.232 0 11-8.385-.814H0v5.625c0 1.208.98 2.187 2.187 2.187h9.624c1.206 0 2.187-.979 2.187-2.187V6.186h-2.846c.052.263.08.535.08.813zm.58-7H2.187C.98 0 0 .98 0 2.187v2.37h3.544a4.225 4.225 0 013.454-1.79c1.428 0 2.69.707 3.455 1.79h3.545v-2.37A2.189 2.189 0 0011.811 0zm1.07 2.702a.393.393 0 01-.391.391h-1.173a.39.39 0 01-.39-.391V1.53c0-.215.174-.391.39-.391h1.173c.214 0 .39.175.39.391v1.172zM9.602 6.999a2.604 2.604 0 10-5.208-.001 2.604 2.604 0 005.208.001z" fill="#000"/></svg><svg fill="none" viewBox="0 0 14 14" id="lindekin" xmlns="http://www.w3.org/2000/svg"><path d="M3.17 1.496c0 .827-.61 1.497-1.614 1.497C.61 2.993 0 2.324 0 1.496 0 .65.63 0 1.595 0s1.556.65 1.576 1.496zM.08 13.804v-9.63h2.992v9.63H.079zM4.863 7.247c0-1.201-.039-2.205-.078-3.072h2.599l.138 1.34h.059c.393-.631 1.358-1.556 2.972-1.556C12.524 3.958 14 5.277 14 8.113v5.691h-2.993V8.468c0-1.24-.433-2.087-1.517-2.087-.827 0-1.319.57-1.535 1.122-.08.197-.099.473-.099.748v5.553H4.863V7.247z" fill="#000"/></svg><svg fill="none" viewBox="0 0 14 14" id="mail" xmlns="http://www.w3.org/2000/svg"><path d="M6.631 10.256L4.408 8.18a.471.471 0 00-.635 0L0 11.695v.478c0 .447.391.81.869.81h12.16c.477 0 .868-.363.868-.81v-.478l-3.773-3.517a.475.475 0 00-.634 0l-2.224 2.076a.471.471 0 01-.635.002zm4.726-3.226l2.223 2.076c.175.164.317.101.317-.139V4.501c0-.24-.142-.303-.317-.139l-2.223 2.076a.397.397 0 000 .592zM.87.823C.39.823 0 1.188 0 1.633v.147l6.597 6.18a.468.468 0 00.633 0l6.667-6.254v-.072c0-.446-.391-.81-.869-.81H.868zM0 4.501v4.466c0 .24.142.303.317.139L2.54 7.03a.398.398 0 000-.593L.317 4.362C.142 4.198 0 4.26 0 4.501z" fill="#000"/></svg><svg fill="none" viewBox="0 0 14 14" id="twitter" xmlns="http://www.w3.org/2000/svg"><g clip-path="url(#gclip0_1_133)"><path d="M14 2.902a5.759 5.759 0 01-1.65.452 2.88 2.88 0 001.263-1.588 5.728 5.728 0 01-1.823.696 2.872 2.872 0 00-2.097-.906 2.872 2.872 0 00-2.798 3.526 8.159 8.159 0 01-5.92-3 2.87 2.87 0 00.889 3.834 2.866 2.866 0 01-1.302-.36v.036c0 1.392.99 2.554 2.304 2.817a2.889 2.889 0 01-1.296.05 2.874 2.874 0 002.682 1.994 5.76 5.76 0 01-4.251 1.188 8.12 8.12 0 004.403 1.29c5.282 0 8.172-4.376 8.172-8.17 0-.126-.003-.25-.01-.373A5.8 5.8 0 0014 2.902z" fill="#000"/></g><defs><clipPath id="gclip0_1_133"><path fill="#fff" d="M0 0h14v14H0z"/></clipPath></defs></svg></svg>